<svg width="39" height="39" viewBox="0 0 39 39" fill="none" xmlns="http://www.w3.org/2000/svg">
<path id="Vector" d="M19.7466 38.25C16.3007 38.25 13.4966 35.4458 13.4966 32L13.607 25.6396L7.28408 25.75C3.80075 25.75 0.996582 22.9458 0.996582 19.5C0.996582 16.0542 3.80075 13.25 7.24658 13.25L13.607 13.1375L13.4966 7.0375C13.4966 3.55417 16.3007 0.75 19.7466 0.75C23.1924 0.75 25.9966 3.55417 25.9966 7L26.1112 13.1375L32.2841 13.25C35.6924 13.25 38.4966 16.0542 38.4966 19.5C38.4966 22.9458 35.6924 25.75 32.2466 25.75L26.1112 25.6396L25.9966 32.0375C25.9966 35.4458 23.1924 38.25 19.7466 38.25ZM17.6632 21.5833V32.0375C17.6632 33.1479 18.5987 34.0833 19.7466 34.0833C20.8945 34.0833 21.8299 33.1479 21.8299 32V21.5833H32.2841C33.3945 21.5833 34.3299 20.6479 34.3299 19.5C34.3299 18.3521 33.3945 17.4167 32.2466 17.4167H21.8299V7C21.8299 5.81458 20.8945 4.91667 19.7466 4.91667C18.5987 4.91667 17.6632 5.85208 17.6632 7V17.4167H7.24658C6.06117 17.4167 5.16325 18.3521 5.16325 19.5C5.16325 20.6479 6.09867 21.5833 7.24658 21.5833H17.6632Z" fill="#2E4561"/>
</svg>
