<svg width="42" height="37" viewBox="0 0 42 37" fill="none" xmlns="http://www.w3.org/2000/svg">
<path d="M20.1321 36.1773C20.3985 36.3233 20.6967 36.4 21 36.4C21.3033 36.4 21.6015 36.3233 21.8679 36.1773C22.2826 35.953 27.1398 33.2473 31.901 28.9898C36.6461 24.7467 41.4 18.8702 41.4 12.3047V12.3043C41.3966 9.20386 40.1889 6.22977 38.0394 4.03494C35.8896 1.83982 32.973 0.603503 29.929 0.6H29.9286C26.3107 0.6 23.105 2.11135 21 4.70221C18.895 2.11135 15.6893 0.6 12.0714 0.6L12.071 0.6C9.02701 0.603503 6.11043 1.83982 3.96062 4.03494C1.81109 6.22977 0.603423 9.20386 0.6 12.3043V12.3047C0.6 18.8702 5.35389 24.7467 10.099 28.9898C14.8602 33.2473 19.7174 35.953 20.1321 36.1773ZM20.1321 36.1773C20.1316 36.177 20.1311 36.1768 20.1306 36.1765L20.3232 35.8259L20.133 36.1778C20.1327 36.1776 20.1324 36.1775 20.1321 36.1773ZM19.3074 8.98939L19.3075 8.98968C19.4442 9.32961 19.6774 9.62169 19.9787 9.82788C20.28 10.0341 20.6355 10.1448 21 10.1448C21.3645 10.1448 21.72 10.0341 22.0213 9.82788C22.3226 9.62169 22.5558 9.32961 22.6925 8.98968L22.6927 8.98916C23.8449 6.11364 26.6052 4.31742 29.9284 4.31735C31.9973 4.3202 33.9825 5.16059 35.448 6.65704C36.914 8.15386 37.7402 10.1849 37.7429 12.3053C37.7426 17.0156 34.3838 21.5701 30.5176 25.2356C26.8227 28.7387 22.75 31.3499 20.9998 32.4058C19.2482 31.351 15.1755 28.7433 11.481 25.2417C7.61532 21.5779 4.25721 17.0228 4.25714 12.3049C4.25994 10.1847 5.08612 8.15377 6.55196 6.65704C8.01753 5.16059 10.0027 4.3202 12.0716 4.31735C15.3945 4.31742 18.1551 6.11882 19.3074 8.98939Z" fill="#2E4561" stroke="#2E4561" stroke-width="0.8"/>
</svg>
