<svg width="37" height="37" viewBox="0 0 37 37" fill="none" xmlns="http://www.w3.org/2000/svg">
<path d="M18.5038 1C15.4825 0.999341 12.5125 1.78092 9.8828 3.26865C7.25315 4.75639 5.05347 6.89961 3.49786 9.48969C1.94225 12.0798 1.08372 15.0285 1.00582 18.0488C0.927921 21.0691 1.63331 24.0582 3.05334 26.725L1.14348 32.4546C0.985284 32.9289 0.962326 33.438 1.07718 33.9247C1.19204 34.4114 1.44017 34.8565 1.79376 35.2101C2.14736 35.5637 2.59244 35.8118 3.07913 35.9266C3.56582 36.0415 4.07488 36.0185 4.54925 35.8603L10.2788 33.9505C12.6258 35.1988 15.2263 35.896 17.883 35.9892C20.5396 36.0825 23.1826 35.5692 25.6113 34.4885C28.04 33.4078 30.1905 31.7879 31.8997 29.752C33.6089 27.716 34.8319 25.3174 35.4757 22.7383C36.1195 20.1591 36.1672 17.4672 35.6153 14.8668C35.0634 12.2664 33.9264 9.82595 32.2905 7.73063C30.6546 5.63531 28.5629 3.9402 26.174 2.77399C23.7852 1.60777 21.1621 1.00109 18.5038 1ZM18.5038 33.3077C15.9007 33.3095 13.3432 32.6239 11.0899 31.3204C10.9249 31.2248 10.7415 31.1652 10.5518 31.1458C10.362 31.1264 10.1703 31.1475 9.9894 31.2077L3.69613 33.3077L5.79444 27.0144C5.85493 26.8336 5.87631 26.642 5.85716 26.4522C5.83802 26.2625 5.77878 26.079 5.68339 25.9139C4.05113 23.0919 3.39578 19.8101 3.81901 16.5776C4.24224 13.3451 5.7204 10.3427 8.02416 8.036C10.3279 5.72932 13.3285 4.24738 16.5605 3.82006C19.7924 3.39275 23.0751 4.04395 25.8991 5.67264C28.7232 7.30134 30.9309 9.81648 32.1797 12.8279C33.4284 15.8393 33.6485 19.1787 32.8057 22.3279C31.963 25.4772 30.1045 28.2603 27.5186 30.2456C24.9327 32.2308 21.7639 33.3072 18.5038 33.3077Z" fill="#2E4561" stroke="#2E4561" stroke-width="1.5"/>
<circle cx="30" cy="7" r="6" fill="#E44D6C" stroke="#2E4561" stroke-width="2"/>
</svg>
